<?xml version="1.0" encoding="UTF-8"?>
<svg xmlns="http://www.w3.org/2000/svg" version="1.1" xmlns:xlink="http://www.w3.org/1999/xlink" viewBox="0 0 720 208.03">
  <defs>
    <style>
      .cls-1, .cls-2 {
        opacity: .85;
      }

      .cls-3 {
        fill: url(#linear-gradient);
      }

      .cls-3, .cls-4, .cls-5, .cls-6, .cls-7, .cls-8, .cls-9, .cls-10, .cls-2, .cls-11, .cls-12, .cls-13, .cls-14 {
        stroke-width: 0px;
      }

      .cls-4 {
        opacity: .6;
      }

      .cls-4, .cls-15, .cls-5, .cls-6, .cls-16, .cls-17, .cls-2, .cls-11, .cls-12, .cls-14 {
        fill: #fff;
      }

      .cls-18 {
        opacity: .9;
      }

      .cls-15 {
        opacity: 0;
      }

      .cls-19 {
        mask: url(#mask-2);
      }

      .cls-20 {
        isolation: isolate;
      }

      .cls-21 {
        mask: url(#mask-3);
      }

      .cls-22 {
        mix-blend-mode: multiply;
      }

      .cls-22, .cls-11 {
        opacity: .15;
      }

      .cls-23 {
        opacity: .8;
      }

      .cls-24 {
        clip-path: url(#clippath-1);
      }

      .cls-25 {
        clip-path: url(#clippath-4);
      }

      .cls-26 {
        mask: url(#mask-5);
      }

      .cls-5 {
        opacity: .65;
      }

      .cls-6 {
        opacity: .45;
      }

      .cls-27 {
        opacity: .75;
      }

      .cls-7 {
        fill: url(#linear-gradient-2);
      }

      .cls-8 {
        fill: url(#radial-gradient-2);
      }

      .cls-28 {
        mask: url(#mask-4);
      }

      .cls-16, .cls-14 {
        opacity: .5;
      }

      .cls-9 {
        fill: url(#linear-gradient-3);
      }

      .cls-29 {
        clip-path: url(#clippath);
      }

      .cls-10 {
        fill: url(#radial-gradient);
      }

      .cls-30 {
        mask: url(#mask-6);
      }

      .cls-31 {
        fill: url(#radial-gradient-3);
        stroke: #231f20;
        stroke-width: .16px;
      }

      .cls-32 {
        clip-path: url(#clippath-8);
      }

      .cls-33 {
        opacity: .36;
      }

      .cls-34 {
        mask: url(#mask-1);
      }

      .cls-35 {
        mask: url(#mask);
      }

      .cls-36 {
        clip-path: url(#clippath-5);
      }

      .cls-13 {
        fill: url(#Linear_Gradient_1);
      }
    </style>
    <clipPath id="clippath">
      <path class="cls-12" d="M163.47,59.7c.07.07-5.66-4.89-27.26,16.67,13.19,15.62,39.46,54.4,32.04,68.11h0s0,0,0,0c0,0,0,0,0,0,8.77-10.86,14.04-24.69,14.04-39.75,0-17.62-7.2-33.55-18.82-45.03h0s-.01-.02-.06-.05M77.34,152.36s0,0,.01.01h0c11.13,9.74,25.7,15.65,41.65,15.65s30.53-5.9,41.66-15.65h0s.01-.01.02-.01h-.02c9.92-10.08-22.76-45.92-41.66-60.22-18.89,14.29-51.58,50.13-41.66,60.23M74.61,59.65s-.06.05-.05.05h0c-11.62,11.48-18.82,27.41-18.82,45.03,0,15.06,5.26,28.89,14.05,39.75h0s0,0,0,0h0c-7.42-13.72,18.85-52.49,32.04-68.11-21.61-21.56-27.34-16.6-27.26-16.67M119.04,41.42c12.3,0,24.29,3.4,35.68,11-.37-.23-3.26-1.96-8.02-1.79-12.12.44-27.65,9.5-27.65,9.5h-.02s-.02,0-.02,0c0,0-15.53-9.06-27.65-9.5-4.76-.17-7.66,1.56-8.02,1.79,11.39-7.6,23.37-11,35.67-11h.04Z"/>
    </clipPath>
    <clipPath id="clippath-1">
      <path class="cls-12" d="M83.69,57.09c-1.19-.6-2.9-1.18-3.9-1.4-.06-.02-.12-.03-.18-.04-.56-.12-1.1-.05-1.58-.01-.55.05-1.16.66-1.62.8-13.04,11.65-21.41,29.03-21.41,47.89,0,15.53,6.26,30.56,15.72,41.69-3.84-5,1.59-19.8,5.36-28.43,1.86-4.25,4.25-7.88,6.76-11.96,9.65-15.67,23.96-30.03,23.96-30.03-8.4-9.23-18.89-16.19-23.11-18.51ZM165.8,146.22c0-.36-.05-.73-.09-1.1-1.07-9.38-11.22-22.02-22.23-33.92-9.95-10.76-19.58-18.58-24.87-23.06h0s-.07.05-.1.07c-3.12,2.26-14.55,12.02-24.53,22.82-11.37,12.31-21.82,25.96-22.21,34.96v.21c.01.26,0,.52.02.77.01.07.06.35.07.42,0,.25.3.53.38.6,11.66,12.36,28.31,20.1,46.41,20.1s35.59-7.92,47.22-20.64c0-.1-.07-.38-.07-.48.02-.26,0-.49-.01-.76ZM182.48,104.37c0-18.97-8.44-36.05-21.61-47.7-.36-.1-.75-.18-1.15-.19-.48-.02-1,.03-1.54.14-.08.02-.18.03-.26.05-.12.02-.23.05-.35.08-5.08,1.73-15.52,9.17-24.53,18.77,0,0,11.66,14,21.64,29.53,2.59,4.02,4.81,8.6,6.93,12.74,5.35,10.43,9.57,23.27,5.43,28.86,9.4-11.08,15.44-26.62,15.44-42.28Z"/>
    </clipPath>
    <linearGradient id="Linear_Gradient_1" data-name="Linear Gradient 1" x1="87.14" y1="102.65" x2="122.33" y2="102.65" gradientUnits="userSpaceOnUse">
      <stop offset="0" stop-color="#fff"/>
      <stop offset="1" stop-color="#000"/>
    </linearGradient>
    <mask id="mask" x="71.79" y="77.72" width="94.11" height="90.37" maskUnits="userSpaceOnUse">
      <rect class="cls-13" x="86.09" y="77.72" width="55.3" height="49.86"/>
    </mask>
    <radialGradient id="radial-gradient" cx="101.26" cy="75.37" fx="101.26" fy="75.37" r="102.58" gradientUnits="userSpaceOnUse">
      <stop offset=".17" stop-color="#fff"/>
      <stop offset=".25" stop-color="#ccc"/>
      <stop offset=".36" stop-color="#858585"/>
      <stop offset=".47" stop-color="#4b4b4b"/>
      <stop offset=".56" stop-color="#222"/>
      <stop offset=".63" stop-color="#090909"/>
      <stop offset=".67" stop-color="#000"/>
    </radialGradient>
    <mask id="mask-1" x="42.96" y="25.48" width="168.84" height="156.5" maskUnits="userSpaceOnUse">
      <rect class="cls-10" x="42.96" y="25.48" width="168.84" height="156.5"/>
    </mask>
    <clipPath id="clippath-4">
      <path class="cls-12" d="M83.69,57.09c-1.19-.6-2.9-1.18-3.9-1.4-.06-.02-.12-.03-.18-.04-.56-.12-1.1-.05-1.58-.01-.55.05-1.16.66-1.62.8-13.04,11.65-21.41,29.03-21.41,47.89,0,15.53,6.26,30.56,15.72,41.69-3.84-5,1.59-19.75,5.36-28.43,1.85-4.25,4.25-7.88,6.76-11.96,9.65-15.67,23.96-30.03,23.96-30.03-8.4-9.23-18.89-16.19-23.11-18.51Z"/>
    </clipPath>
    <linearGradient id="linear-gradient" x1="116.03" y1="44.2" x2="116.03" y2="141.01" gradientUnits="userSpaceOnUse">
      <stop offset=".34" stop-color="#fff"/>
      <stop offset=".35" stop-color="#f3f3f3"/>
      <stop offset=".43" stop-color="#b3b3b3"/>
      <stop offset=".5" stop-color="#7c7c7c"/>
      <stop offset=".57" stop-color="#505050"/>
      <stop offset=".64" stop-color="#2d2d2d"/>
      <stop offset=".7" stop-color="#141414"/>
      <stop offset=".76" stop-color="#050505"/>
      <stop offset=".81" stop-color="#000"/>
    </linearGradient>
    <mask id="mask-2" x="54.28" y="37.02" width="128.7" height="131.99" maskUnits="userSpaceOnUse">
      <rect class="cls-3" x="55.11" y="37.02" width="121.85" height="113.09"/>
    </mask>
    <clipPath id="clippath-5">
      <path class="cls-12" d="M83.69,57.09c-1.19-.6-2.9-1.18-3.9-1.4-.06-.02-.12-.03-.18-.04-.56-.12-1.1-.05-1.58-.01-.55.05-1.16.66-1.62.8-13.04,11.65-21.41,29.03-21.41,47.89,0,15.53,6.26,30.56,15.72,41.69-3.84-5,1.59-20.02,5.36-28.43,1.9-4.23,4.25-7.88,6.76-11.96,9.65-15.67,23.96-30.03,23.96-30.03-8.4-9.23-18.89-16.19-23.11-18.51Z"/>
    </clipPath>
    <linearGradient id="linear-gradient-2" x1="195.9" y1="173.18" x2="64.09" y2="46.36" gradientUnits="userSpaceOnUse">
      <stop offset=".29" stop-color="#fff"/>
      <stop offset=".8" stop-color="#000"/>
    </linearGradient>
    <mask id="mask-3" x="48.74" y="29.94" width="142.85" height="140.74" maskUnits="userSpaceOnUse">
      <rect class="cls-7" x="48.74" y="29.94" width="142.85" height="140.74"/>
    </mask>
    <clipPath id="clippath-8">
      <path class="cls-14" d="M156.83,53.72c-.73-.42-4.7-1.6-5.74-1.8-4.61-.91-9.73.19-14.54,2.14-7.55,3.05-14.68,7.13-17.46,8.88h0c-2.66-1.7-10-5.14-17.63-8.07-5.59-2.13-12.19-3.17-15.67-2.37-1.27.29-3.83.2-4.65.72,10.26-7.08,24.41-12.38,37.82-12.38s27.96,4.87,37.87,12.87Z"/>
    </clipPath>
    <linearGradient id="linear-gradient-3" x1="91.81" y1="96.51" x2="36.14" y2="96.51" gradientUnits="userSpaceOnUse">
      <stop offset="0" stop-color="#fff"/>
      <stop offset=".29" stop-color="#a5a5a5"/>
      <stop offset=".54" stop-color="#5e5e5e"/>
      <stop offset=".75" stop-color="#2b2b2b"/>
      <stop offset=".91" stop-color="#0b0b0b"/>
      <stop offset="1" stop-color="#000"/>
    </linearGradient>
    <mask id="mask-4" x="39.29" y="44.65" width="68.8" height="103.72" maskUnits="userSpaceOnUse">
      <rect class="cls-9" x="39.29" y="44.65" width="68.8" height="103.72"/>
    </mask>
    <radialGradient id="radial-gradient-2" cx="141.96" cy="75.37" fx="141.96" fy="75.37" r="86.18" gradientUnits="userSpaceOnUse">
      <stop offset=".37" stop-color="#fff"/>
      <stop offset=".41" stop-color="#c5c5c5"/>
      <stop offset=".47" stop-color="gray"/>
      <stop offset=".52" stop-color="#494949"/>
      <stop offset=".56" stop-color="#212121"/>
      <stop offset=".6" stop-color="#080808"/>
      <stop offset=".62" stop-color="#000"/>
    </radialGradient>
    <mask id="mask-5" x="121.74" y="46.23" width="73" height="102.67" maskUnits="userSpaceOnUse">
      <rect class="cls-8" x="121.74" y="46.23" width="73" height="102.67"/>
    </mask>
    <radialGradient id="radial-gradient-3" cx="102.21" cy="72.03" fx="102.21" fy="72.03" r="79.61" gradientUnits="userSpaceOnUse">
      <stop offset=".54" stop-color="#000"/>
      <stop offset=".6" stop-color="#050505"/>
      <stop offset=".69" stop-color="#151515"/>
      <stop offset=".76" stop-color="#2a2a2a"/>
      <stop offset=".82" stop-color="#adadad"/>
      <stop offset=".92" stop-color="#fff"/>
    </radialGradient>
    <mask id="mask-6" x="53.11" y="36.28" width="132.16" height="133.52" maskUnits="userSpaceOnUse">
      <rect class="cls-31" x="53.19" y="36.36" width="132" height="133.36"/>
    </mask>
  </defs>
  <g class="cls-20">
    <g id="Layer_1" data-name="Layer 1">
      <g id="XB1_Horizontal_White_Logo" data-name="XB1 Horizontal White Logo">
        <g>
          <path class="cls-17" d="M163.47,59.7c.07.07-5.66-4.89-27.26,16.67,13.19,15.62,39.46,54.4,32.04,68.11h0s0,0,0,0c0,0,0,0,0,0,8.77-10.86,14.04-24.69,14.04-39.75,0-17.62-7.2-33.55-18.82-45.03h0s-.01-.02-.06-.05M77.34,152.36s0,0,.01.01h0c11.13,9.74,25.7,15.65,41.65,15.65s30.53-5.9,41.66-15.65h0s.01-.01.02-.01h-.02c9.92-10.08-22.76-45.92-41.66-60.22-18.89,14.29-51.58,50.13-41.66,60.23M74.61,59.65s-.06.05-.05.05h0c-11.62,11.48-18.82,27.41-18.82,45.03,0,15.06,5.26,28.89,14.05,39.75h0s0,0,0,0h0c-7.42-13.72,18.85-52.49,32.04-68.11-21.61-21.56-27.34-16.6-27.26-16.67M119.04,41.42c12.3,0,24.29,3.4,35.68,11-.37-.23-3.26-1.96-8.02-1.79-12.12.44-27.65,9.5-27.65,9.5h-.02s-.02,0-.02,0c0,0-15.53-9.06-27.65-9.5-4.76-.17-7.66,1.56-8.02,1.79,11.39-7.6,23.37-11,35.67-11h.04Z"/>
          <g class="cls-29">
            <g>
              <g>
                <path class="cls-17" d="M83.69,57.09c-1.19-.6-2.9-1.18-3.9-1.4-.06-.02-.12-.03-.18-.04-.56-.12-1.1-.05-1.58-.01-.55.05-1.16.66-1.62.8-13.04,11.65-21.41,29.03-21.41,47.89,0,15.53,6.26,30.56,15.72,41.69-3.84-5,1.59-19.8,5.36-28.43,1.86-4.25,4.25-7.88,6.76-11.96,9.65-15.67,23.96-30.03,23.96-30.03-8.4-9.23-18.89-16.19-23.11-18.51ZM165.8,146.22c0-.36-.05-.73-.09-1.1-1.07-9.38-11.22-22.02-22.23-33.92-9.95-10.76-19.58-18.58-24.87-23.06h0s-.07.05-.1.07c-3.12,2.26-14.55,12.02-24.53,22.82-11.37,12.31-21.82,25.96-22.21,34.96v.21c.01.26,0,.52.02.77.01.07.06.35.07.42,0,.25.3.53.38.6,11.66,12.36,28.31,20.1,46.41,20.1s35.59-7.92,47.22-20.64c0-.1-.07-.38-.07-.48.02-.26,0-.49-.01-.76ZM182.48,104.37c0-18.97-8.44-36.05-21.61-47.7-.36-.1-.75-.18-1.15-.19-.48-.02-1,.03-1.54.14-.08.02-.18.03-.26.05-.12.02-.23.05-.35.08-5.08,1.73-15.52,9.17-24.53,18.77,0,0,11.66,14,21.64,29.53,2.59,4.02,4.81,8.6,6.93,12.74,5.35,10.43,9.57,23.27,5.43,28.86,9.4-11.08,15.44-26.62,15.44-42.28Z"/>
                <g class="cls-24">
                  <g class="cls-33">
                    <path class="cls-12" d="M186.03,103.55c0,37.15-30.12,67.26-67.27,67.26s-67.27-30.11-67.27-67.26,30.13-67.27,67.27-67.27,67.27,30.12,67.27,67.27Z"/>
                  </g>
                </g>
              </g>
              <g class="cls-35">
                <g class="cls-23">
                  <path class="cls-17" d="M165.8,146.22c0-.36-.05-.73-.09-1.1-1.17-9.56-11.22-22.02-22.23-33.92-9.95-10.76-19.58-18.58-24.87-23.06h0s-.07.05-.1.07c-3.12,2.26-14.55,12.02-24.53,22.82-11.37,12.31-21.82,25.96-22.21,34.96v.21c.01.26,0,.52.02.77.01.11.06.39.08.49.01.1.28.44.34.5,11.67,12.39,28.34,20.13,46.45,20.13s35.59-7.92,47.22-20.64c0-.1-.07-.38-.07-.48.02-.26,0-.49-.01-.76Z"/>
                </g>
              </g>
              <g class="cls-34">
                <g class="cls-18">
                  <path class="cls-17" d="M83.69,57.09c-1.19-.6-2.9-1.18-3.9-1.4-.06-.02-.12-.03-.18-.04-.56-.12-1.1-.05-1.58-.01-.55.05-1.16.66-1.62.8-13.04,11.65-21.41,29.03-21.41,47.89,0,15.53,6.26,30.56,15.72,41.69-3.84-5,1.79-20.42,5.36-28.43,1.89-4.24,4.25-7.88,6.76-11.96,9.65-15.67,23.96-30.03,23.96-30.03-8.4-9.23-18.89-16.19-23.11-18.51ZM165.8,146.22c0-.36-.04-.73-.09-1.1-1.3-9.71-11.22-22.02-22.23-33.92-9.95-10.76-19.58-18.58-24.87-23.06h0s-.07.05-.1.07c-3.12,2.26-14.55,12.02-24.53,22.82-11.37,12.31-21.82,25.96-22.21,34.96v.21c.01.26,0,.52.02.77.01.07.06.35.07.42,0,.25.3.53.38.6,11.66,12.36,28.31,20.1,46.41,20.1s35.59-7.92,47.22-20.64c0-.1-.07-.38-.07-.48.02-.26,0-.49-.01-.76ZM182.48,104.37c0-18.97-8.44-36.05-21.61-47.7-.36-.1-.75-.18-1.15-.19-.48-.02-1,.03-1.54.14-.08.02-.18.03-.26.05-.12.02-.23.05-.35.08-5.08,1.73-15.52,9.17-24.53,18.77,0,0,11.66,14,21.64,29.53,2.59,4.02,4.81,8.6,6.93,12.74,5.35,10.43,9.57,23.27,5.43,28.86,9.4-11.08,15.44-26.62,15.44-42.28Z"/>
                </g>
              </g>
              <g>
                <path class="cls-17" d="M83.69,57.09c-1.19-.6-2.9-1.18-3.9-1.4-.06-.02-.12-.03-.18-.04-.56-.12-1.1-.05-1.58-.01-.55.05-1.16.66-1.62.8-13.04,11.65-21.41,29.03-21.41,47.89,0,15.53,6.26,30.56,15.72,41.69-3.84-5,1.59-19.75,5.36-28.43,1.85-4.25,4.25-7.88,6.76-11.96,9.65-15.67,23.96-30.03,23.96-30.03-8.4-9.23-18.89-16.19-23.11-18.51Z"/>
                <g class="cls-25">
                  <g class="cls-19">
                    <path class="cls-5" d="M182.97,103.97c0,47.08-38.91,65.04-67.55,65.04s-61.15-25.11-61.15-63.53,33.26-64.91,61.9-64.91,66.8,18.08,66.8,63.41Z"/>
                  </g>
                </g>
              </g>
              <g class="cls-18">
                <path class="cls-17" d="M83.69,57.09c-1.19-.6-2.9-1.18-3.9-1.4-.06-.02-.12-.03-.18-.04-.56-.12-1.1-.05-1.58-.01-.55.05-1.16.66-1.62.8-13.04,11.65-21.41,29.03-21.41,47.89,0,15.53,6.26,30.56,15.72,41.69-3.84-5,1.59-20.02,5.36-28.43,1.9-4.23,4.25-7.88,6.76-11.96,9.65-15.67,23.96-30.03,23.96-30.03-8.4-9.23-18.89-16.19-23.11-18.51Z"/>
                <g class="cls-36">
                  <path class="cls-6" d="M137.22,81.39c0,18.32-43.65,70.29-61.97,70.29s-23.23-35.29-23.23-53.61,10.43-41.68,28.75-41.68,56.45,6.69,56.45,25.01Z"/>
                </g>
              </g>
              <g class="cls-21">
                <g class="cls-23">
                  <path class="cls-17" d="M83.69,57.09c-1.19-.6-2.9-1.18-3.9-1.4-.06-.02-.12-.03-.18-.04-.56-.12-1.1-.05-1.58-.01-.55.05-1.16.66-1.62.8-13.04,11.65-21.41,29.03-21.41,47.89,0,15.53,6.26,30.56,15.72,41.69-3.84-5,1.96-21.06,5.36-28.43,1.94-4.21,4.25-7.88,6.76-11.96,9.65-15.67,23.96-30.03,23.96-30.03-8.4-9.23-18.89-16.19-23.11-18.51ZM165.8,146.22c0-.36-.05-.73-.09-1.1-1.1-9.35-11.22-22.02-22.23-33.92-9.95-10.76-19.58-18.58-24.87-23.06h0s-.07.05-.1.07c-3.12,2.26-14.55,12.02-24.53,22.82-11.37,12.31-21.82,25.96-22.21,34.96v.21c.01.26,0,.52.02.77.01.07.06.35.07.42,0,.25.3.53.38.6,11.66,12.36,28.31,20.1,46.41,20.1s35.59-7.92,47.22-20.64c0-.1-.07-.38-.07-.48.02-.26,0-.49-.01-.76ZM182.48,104.37c0-18.97-8.44-36.05-21.61-47.7-.36-.1-.75-.18-1.15-.19-.48-.02-1,.03-1.54.14-.08.02-.18.03-.26.05-.12.02-.23.05-.35.08-5.08,1.73-15.52,9.17-24.53,18.77,0,0,11.66,14,21.64,29.53,2.59,4.02,4.81,8.6,6.93,12.74,5.35,10.43,9.57,23.27,5.43,28.86,9.4-11.08,15.44-26.62,15.44-42.28Z"/>
                </g>
              </g>
              <path class="cls-17" d="M156.83,53.72c-.73-.42-4.24-1.51-5.28-1.72-4.6-.91-9.96.05-14.76,2-7.55,3.05-14.68,7.13-17.47,8.88h0c-2.66-1.7-10.28-5.05-17.91-7.97-5.59-2.13-11.82-3.25-15.31-2.45-1.27.29-4.11.3-4.92.82,10.26-7.08,24.61-12.48,38.02-12.48s28.21,5.08,37.64,12.93Z"/>
              <g>
                <path class="cls-16" d="M156.83,53.72c-.73-.42-4.7-1.6-5.74-1.8-4.61-.91-9.73.19-14.54,2.14-7.55,3.05-14.68,7.13-17.46,8.88h0c-2.66-1.7-10-5.14-17.63-8.07-5.59-2.13-12.19-3.17-15.67-2.37-1.27.29-3.83.2-4.65.72,10.26-7.08,24.41-12.38,37.82-12.38s27.96,4.87,37.87,12.87Z"/>
                <g class="cls-32">
                  <path class="cls-2" d="M137.22,81.39c0,18.32-14.85,33.18-33.18,33.18s-33.17-14.85-33.17-33.18,14.85-33.17,33.17-33.17,33.18,14.85,33.18,33.17Z"/>
                </g>
              </g>
              <g class="cls-28">
                <path class="cls-4" d="M83.69,57.09c-1.19-.6-2.9-1.18-3.9-1.4-.06-.02-.12-.03-.18-.04-.56-.12-1.1-.05-1.58-.01-.55.05-1.16.66-1.62.8-13.04,11.65-21.41,29.03-21.41,47.89,0,15.53,6.26,30.56,15.72,41.69-3.84-5,2.26-22.59,5.36-28.43,2.18-4.1,4.25-7.88,6.76-11.96,9.65-15.67,23.96-30.03,23.96-30.03-8.4-9.23-18.89-16.19-23.11-18.51Z"/>
              </g>
              <g class="cls-26">
                <path class="cls-11" d="M182.48,104.37c0-18.97-8.44-36.05-21.61-47.7-.36-.1-.75-.18-1.15-.19-.48-.02-1,.03-1.54.14-.08.02-.18.03-.26.05-.12.02-.23.05-.35.08-5.08,1.73-15.52,9.17-24.53,18.77,0,0,11.66,14,21.64,29.53,2.59,4.02,4.81,8.6,6.93,12.74,5.35,10.43,9.57,23.27,5.43,28.86,9.4-11.08,15.44-26.62,15.44-42.28Z"/>
              </g>
              <path class="cls-17" d="M165.8,146.22c0-.36-.05-.73-.09-1.1-1.13-9.39-11.22-22.02-22.23-33.92-9.95-10.76-19.58-18.58-24.87-23.06h0s-.07.05-.1.07c-3.12,2.26-14.55,12.02-24.53,22.82-11.37,12.31-21.82,25.96-22.21,34.96v.21c.01.26,0,.52.02.77.01.12.07.44.08.55,0,.08.27.37.33.43,11.66,12.39,28.34,20.14,46.45,20.14s35.59-7.92,47.22-20.64c0-.1-.07-.38-.07-.48.02-.26,0-.49-.01-.76Z"/>
              <g class="cls-1">
                <path class="cls-17" d="M182.48,104.37c0-18.97-8.44-36.05-21.61-47.7-.36-.1-.75-.18-1.15-.19-.48-.02-1,.03-1.54.14-.08.02-.18.03-.26.05-.12.02-.23.05-.35.08-5.08,1.73-15.52,9.17-24.53,18.77,0,0,11.39,13.59,21.36,29.12,2.59,4.02,4.98,8.81,7.1,12.95,5.35,10.44,9.69,23.39,5.56,28.97,9.4-11.08,15.41-26.54,15.41-42.2Z"/>
              </g>
              <g class="cls-30">
                <g class="cls-22">
                  <path class="cls-17" d="M83.59,57.07c-1.2-.6-2.39-1.05-3.39-1.28-.06-.02-.54-.15-.6-.15-.56-.12-1.1-.03-1.58,0-.55.05-1.12.61-1.58.76-13.04,11.65-21.45,29.08-21.45,47.93,0,15.53,6.26,30.56,15.72,41.69-3.84-5,3.09-23.8,5.05-27.86,2.01-4.18,4.65-8.58,7.15-12.65,9.65-15.67,23.88-29.9,23.88-29.9-8.4-9.23-18.98-16.22-23.2-18.53ZM165.8,146.18c-.02-.36-.08-.86-.11-1.22-1.05-8.95-10.75-21.4-21.76-33.31-9.95-10.76-19.58-18.63-24.86-23.1l-.45.07s-.42-.17-.45-.15c-3.12,2.27-13.83,11.35-23.8,22.14-11.38,12.31-22.11,25.84-22.49,34.85,0,.07-.04.54-.04.61.01.26-.05.44-.03.69.01.09.02.4.03.5.02.15.27.55.33.62,11.67,12.37,28.41,20.21,46.51,20.21s35.59-7.92,47.22-20.64c0-.1-.08-.49-.08-.59.02-.26,0-.41,0-.68Z"/>
                </g>
              </g>
              <g class="cls-27">
                <path class="cls-15" d="M156.83,53.72c-.73-.42-4.45-1.55-5.49-1.76-4.61-.91-10.84.64-15.65,2.6-7.55,3.05-13.75,6.89-16.55,8.64l-.59-.07c-2.65-1.7-9.93-5.53-17.56-8.46-5.59-2.13-12.9-2.77-16.39-1.97-1.27.29-2.81.08-3.59.66,11.12-8.34,24.23-12.67,37.64-12.67s28.5,4.69,38.16,13.04Z"/>
              </g>
            </g>
          </g>
        </g>
        <g>
          <polygon class="cls-12" points="453.47 142.63 429.94 110.66 406.41 142.63 396.72 142.63 425.02 104.01 399.17 68.92 408.86 68.92 429.94 97.54 450.99 68.92 460.68 68.92 434.84 104.01 463.16 142.63 453.47 142.63"/>
          <polygon class="cls-12" points="269.99 142.62 241.66 104.01 267.51 68.92 257.82 68.92 236.75 97.55 215.7 68.92 206.03 68.92 231.87 104.01 203.54 142.62 213.24 142.62 236.76 110.66 260.29 142.62 269.99 142.62"/>
          <path class="cls-12" d="M323.87,106.8c-1.53-1.31-3.2-2.32-4.83-3.07,5.35-2.9,8.86-8.39,8.86-14.76,0-4.72-1.74-20.05-23.96-20.05h-29.93v31.78h-9.97c-1.29,1.68-4.23,5.73-5.35,7.39h15.32v34.53h29.93c16.22,0,26.29-8.23,26.29-21.51,0-5.8-2.19-10.74-6.36-14.31ZM282.29,76.61h21.66c5.86,0,15.68,1.46,15.68,11.71,0,7.75-5.72,12.37-15.68,12.37h-21.66v-24.09ZM303.95,134.93h-21.66v-26.83h21.66c8.22,0,18.04,2.27,18.04,12.84,0,12.17-11.3,13.99-18.04,13.99Z"/>
          <path class="cls-12" d="M369.17,67.22c-20.7,0-35.17,15.84-35.17,38.51s14.47,38.53,35.17,38.53,35.11-15.83,35.11-38.53-14.43-38.51-35.11-38.51ZM369.17,136.46c-15.77,0-26.82-12.64-26.82-30.74s11.05-30.72,26.82-30.72,26.74,12.64,26.74,30.72-10.99,30.74-26.74,30.74Z"/>
          <polygon class="cls-12" points="606.19 68.92 606.19 129.4 561.64 68.87 554.33 68.86 554.33 142.5 562.53 142.5 562.53 83.35 606.18 142.55 614.39 142.56 614.39 68.92 606.19 68.92"/>
          <path class="cls-12" d="M511.74,67.21c-20.71,0-35.18,15.84-35.18,38.51s14.47,38.54,35.18,38.54,35.11-15.83,35.11-38.54-14.43-38.51-35.11-38.51ZM511.74,136.46c-15.77,0-26.83-12.64-26.83-30.74s11.05-30.73,26.83-30.73,26.74,12.64,26.74,30.73-10.99,30.74-26.74,30.74Z"/>
          <polygon class="cls-12" points="631.86 135.35 631.86 108.1 672.41 108.1 672.41 100.9 631.86 100.9 631.86 76.07 675.16 76.07 675.16 68.87 623.61 68.87 623.61 142.56 675.67 142.56 675.67 135.35 631.86 135.35"/>
        </g>
      </g>
    </g>
  </g>
</svg>