<svg width="30" height="30" viewBox="0 0 30 30" fill="none" xmlns="http://www.w3.org/2000/svg">
<path d="M26.1838 10.3813C26.17 9.43507 25.995 8.49632 25.66 7.61132C25.0738 6.10007 23.88 4.90507 22.3688 4.32007C21.495 3.99132 20.5713 3.81507 19.6363 3.79507C18.4338 3.74132 18.0525 3.72632 15 3.72632C11.9475 3.72632 11.5563 3.72632 10.3625 3.79507C9.42878 3.81507 8.50503 3.99132 7.63128 4.32007C6.12003 4.90507 4.92503 6.10007 4.34003 7.61132C4.01128 8.48507 3.83378 9.40882 3.81628 10.3426C3.76253 11.5463 3.74628 11.9276 3.74628 14.9801C3.74628 18.0326 3.74628 18.4226 3.81628 19.6176C3.83503 20.5526 4.01128 21.4751 4.34003 22.3513C4.92628 23.8613 6.12003 25.0563 7.63253 25.6413C8.50253 25.9813 9.42628 26.1738 10.3638 26.2038C11.5675 26.2576 11.9488 26.2738 15.0013 26.2738C18.0538 26.2738 18.445 26.2738 19.6388 26.2038C20.5725 26.1851 21.4963 26.0088 22.3713 25.6801C23.8825 25.0938 25.0763 23.8988 25.6625 22.3888C25.9913 21.5138 26.1675 20.5913 26.1863 19.6551C26.24 18.4526 26.2563 18.0713 26.2563 15.0176C26.2538 11.9651 26.2538 11.5776 26.1838 10.3813ZM14.9925 20.7526C11.8 20.7526 9.21378 18.1663 9.21378 14.9738C9.21378 11.7813 11.8 9.19507 14.9925 9.19507C18.1825 9.19507 20.7713 11.7813 20.7713 14.9738C20.7713 18.1663 18.1825 20.7526 14.9925 20.7526ZM21.0013 10.3288C20.255 10.3288 19.6538 9.72632 19.6538 8.98132C19.6538 8.23632 20.255 7.63382 21.0013 7.63382C21.745 7.63382 22.3475 8.23632 22.3475 8.98132C22.3475 9.72632 21.745 10.3288 21.0013 10.3288Z" fill="#64646A"/>
<path d="M14.9925 18.7275C17.0657 18.7275 18.7463 17.0469 18.7463 14.9737C18.7463 12.9006 17.0657 11.22 14.9925 11.22C12.9194 11.22 11.2388 12.9006 11.2388 14.9737C11.2388 17.0469 12.9194 18.7275 14.9925 18.7275Z" fill="#64646A"/>
</svg>
