<?xml version="1.0" standalone="no"?>
<!DOCTYPE svg PUBLIC "-//W3C//DTD SVG 20010904//EN"
 "http://www.w3.org/TR/2001/REC-SVG-20010904/DTD/svg10.dtd">
<svg version="1.0"
   xmlns="http://www.w3.org/2000/svg" width="251.000000pt" height="171.000000pt" viewBox="0 0 251.000000 171.000000" preserveAspectRatio="xMidYMid meet">
   <metadata>
Created by potrace 1.16, written by Peter Selinger 2001-2019
   </metadata>
   <g transform="translate(0.000000,171.000000) scale(0.100000,-0.100000)" fill="brown" stroke="none">
      <path d="M1864 1356 c-234 -78 -448 -222 -529 -357 -20 -32 -43 -59 -50 -59
-8 0 -30 24 -48 53 -66 102 -245 243 -390 304 -181 77 -268 97 -152 35 128
-69 225 -140 298 -217 114 -120 228 -309 262 -438 10 -37 23 -66 28 -64 5 1
17 32 27 68 30 117 118 272 223 393 93 108 259 226 397 282 36 14 67 28 69 30
13 12 -46 -1 -135 -30z"/>
      <path d="M2200 1305 c-340 -93 -579 -226 -672 -374 l-20 -31 26 -35 c15 -19
33 -35 41 -35 8 0 31 21 52 46 108 131 336 296 520 378 65 29 129 57 143 64
41 18 1 12 -90 -13z"/>
      <path d="M355 1284 c44 -19 87 -38 95 -41 8 -4 51 -27 95 -51 105 -60 223
-152 343 -268 53 -52 104 -93 112 -91 8 1 24 18 34 38 l20 36 -38 51 c-20 28
-58 70 -83 92 -83 73 -372 204 -550 249 -114 29 -120 26 -28 -15z"/>
      <path d="M1083 858 c-49 -61 -131 -141 -170 -166 -23 -15 -43 -30 -43 -33 0
-3 22 -20 48 -37 26 -17 72 -56 101 -87 29 -31 55 -54 57 -52 6 6 -48 81 -94
129 l-46 48 45 37 c81 70 139 133 139 152 0 30 -17 34 -37 9z"/>
      <path d="M1456 871 c-16 -26 7 -62 84 -133 44 -40 80 -78 80 -84 0 -7 -15 -25
-33 -41 -37 -33 -107 -121 -107 -135 0 -6 33 23 73 63 39 41 89 83 110 94 20
11 37 22 37 25 0 3 -25 20 -55 38 -48 29 -77 58 -158 156 -17 21 -26 26 -31
17z"/>
      <path d="M1091 736 l-23 -24 37 -63 c51 -91 92 -182 121 -269 25 -78 44 -116
44 -92 1 58 -68 308 -125 455 -10 24 -27 21 -54 -7z"/>
      <path d="M1414 723 c-63 -146 -142 -459 -106 -417 5 5 16 32 24 59 34 106 68
185 113 260 46 75 47 79 32 104 -24 40 -44 38 -63 -6z"/>
   </g>
</svg>
