<svg width="30" height="46" fill="none" xmlns="http://www.w3.org/2000/svg"><g clip-path="url(#a)"><path d="M137.001-1H-1v57.96h138.001V-1Z" fill="#fff"/><path d="M29 1H1v44h28V1Z" fill="#231F20"/><path d="M28.14 2.16H1.95v7.36h26.19V2.16ZM28.15 11.12H1.94v27.05h26.21V11.12ZM1.94 43.36v-3.59h5.27v.84H4.06v.51h2.66v.84H4.06v.56h3.27v.84H1.94ZM11.83 40.82a.41.41 0 0 0-.31-.24 1.788 1.788 0 0 0-.55-.07c-.46 0-.67.07-.67.21 0 .53 3.71.2 3.71 1.5 0 .84-1.25 1.24-3 1.24s-2.81-.55-2.86-1.2h2a.492.492 0 0 0 .35.28c.194.062.396.093.6.09.53 0 .88-.09.88-.26 0-.55-3.71-.17-3.71-1.54 0-.76 1.18-1.15 2.79-1.15 1.79 0 2.61.51 2.77 1.14h-2ZM17.15 41.33h.83c.65 0 1-.1 1-.34 0-.24-.36-.38-.85-.38h-1l.02.72Zm0 .78v1.25h-2.12v-3.59h3c2.15 0 2.86.33 2.86 1 0 .41-.33.76-1.09.88.68.14 1.1.22 1.1 1 0 .46 0 .63.22.63v.1h-2.09a1.24 1.24 0 0 1-.11-.62c0-.47-.14-.63-1.13-.63l-.64-.02ZM24.35 40.65v.6h.88c.42 0 .73-.1.73-.31s-.42-.29-.87-.29h-.74Zm0 1.25v.67h.92c.52 0 .92-.06.92-.33s-.49-.34-1.17-.34h-.67Zm-2.12 1.5v-3.59h3.09c1.45 0 2.61.2 2.61.91 0 .37-.44.64-.85.78.7.1 1.08.44 1.08.82 0 .8-1.1 1.08-2.78 1.08h-3.15Z" fill="#fff"/><path d="m2.89 17.82 8.03-2.17 4.59 10.8.03-.01-1.38-11.65 8.04-2.17 5.01 18.85-4.9 1.31-3.58-13.47-.04.02 1.52 14.02-5.3 1.43-5.65-12.91-.04.01 3.57 13.47-4.89 1.32-5.01-18.85ZM2.65 7.92V3.75h1.18l.55 2.84.59-2.84h1.14v4.17h-.72V4.7l-.67 3.22h-.7L3.37 4.7v3.22h-.72ZM6.45 7.92l1-4.17h1l1 4.17h-.78L8.48 7h-1l-.2.92h-.83Zm1.38-3.37-.34 1.81h.7l-.36-1.81ZM11.5 3.75v.69h-.82v3.48h-.74V4.44h-.82v-.69h2.38ZM14.21 3.75v3c0 .155-.02.31-.06.46a1 1 0 0 1-.2.41 1.07 1.07 0 0 1-.36.3 1.41 1.41 0 0 1-.57.11 1.12 1.12 0 0 1-.9-.35 1.37 1.37 0 0 1-.3-.93v-3h.74v2.9a1 1 0 0 0 .12.55.39.39 0 0 0 .33.16.4.4 0 0 0 .36-.18 1.07 1.07 0 0 0 .11-.53v-2.9h.73ZM15.53 7.92h-.7V3.75h1.36a.75.75 0 0 1 .6.28c.165.236.243.523.22.81a1.42 1.42 0 0 1-.15.68.68.68 0 0 1-.5.34h.16a.72.72 0 0 1 .22.1.94.94 0 0 1 .18.24c.058.143.085.296.08.45v.64a3.295 3.295 0 0 0 0 .35.806.806 0 0 0 0 .23h-.72a1.097 1.097 0 0 1-.08-.4v-.76a.84.84 0 0 0 0-.29.35.35 0 0 0-.16-.2.56.56 0 0 0-.32-.08h-.19v1.78Zm0-2.37h.3a.35.35 0 0 0 .18 0 .439.439 0 0 0 .12-.15c.03-.063.05-.13.06-.2.005-.07.005-.14 0-.21a.72.72 0 0 0-.1-.42.33.33 0 0 0-.28-.13h-.33l.05 1.11ZM17.52 7.92V3.75h1.92v.64h-1.18v1h1.09v.64h-1.09v1.22h1.22v.64l-1.96.03ZM20.97 4.38l.36-.28c.113-.112.214-.236.3-.37h.65v4.19h-.74V4.7a3.214 3.214 0 0 1-.27.25l-.3.21v-.78ZM24.83 4.53 24 7.92h-.76l.93-3.54H23v-.65h1.83v.8ZM26 4.56h.55V5.7h.82v.64h-.82v1.14H26V6.34h-.82V5.7H26V4.56Z" fill="#231F20"/></g><defs><clipPath id="a"><path fill="#fff" d="M0 0h30v46H0z"/></clipPath></defs></svg>