<svg width="28" height="28" viewBox="0 0 28 28" fill="none" xmlns="http://www.w3.org/2000/svg">
<path d="M18.1429 15.1621L15.7978 17.5151C14.8469 18.4694 13.1736 18.49 12.2021 17.5151L9.85695 15.1621L1.4342 23.6122C1.74773 23.7572 2.09341 23.8437 2.46091 23.8437H25.539C25.9065 23.8437 26.2521 23.7573 26.5655 23.6123L18.1429 15.1621Z" fill="#64646A"/>
<path d="M25.539 4.15625H2.46092C2.09342 4.15625 1.74774 4.24277 1.43433 4.38774L10.4346 13.4179C10.4352 13.4185 10.4359 13.4186 10.4365 13.4192C10.4371 13.4198 10.4373 13.4206 10.4373 13.4206L13.3637 16.3568C13.6746 16.6677 14.3255 16.6677 14.6363 16.3568L17.5622 13.4211C17.5622 13.4211 17.5629 13.4198 17.5635 13.4192C17.5635 13.4192 17.5648 13.4185 17.5654 13.4179L26.5655 4.38769C26.2521 4.24266 25.9065 4.15625 25.539 4.15625Z" fill="#64646A"/>
<path d="M0.261734 5.53491C0.0995312 5.86293 0 6.22704 0 6.61707V21.3827C0 21.7727 0.0994219 22.1368 0.26168 22.4648L8.69903 14.0002L0.261734 5.53491Z" fill="#64646A"/>
<path d="M27.7383 5.53491L19.301 14.0003L27.7383 22.4651C27.9005 22.1371 28 21.7729 28 21.3828V6.61718C28 6.22704 27.9005 5.86293 27.7383 5.53491Z" fill="#64646A"/>
</svg>
